HIERARCHY
ROOT Hips
{
	OFFSET 0.000000 0.000000 0.000000
	CHANNELS 6 Xposition Yposition Zposition Zrotation Yrotation Xrotation 
	JOINT LHipJoint
	{
		OFFSET 0.000000 0.000000 0.000000
		CHANNELS 3 Zrotation Yrotation Xrotation
		JOINT LeftUpLeg
		{
			OFFSET 1.363060 -1.794630 0.839290
			CHANNELS 3 Zrotation Yrotation Xrotation
			JOINT LeftLeg
			{
				OFFSET 2.448110 -6.726130 0.000000
				CHANNELS 3 Zrotation Yrotation Xrotation
				JOINT LeftFoot
				{
					OFFSET 2.562200 -7.039590 0.000000
					CHANNELS 3 Zrotation Yrotation Xrotation
					JOINT LeftToeBase
					{
						OFFSET 0.157640 -0.433110 2.322550
						CHANNELS 3 Zrotation Yrotation Xrotation
						End Site
						{
							OFFSET 0.000000 0.000000 0.000000
						}
					}
				}
			}
		}
	}
	JOINT RHipJoint
	{
		OFFSET 0.000000 0.000000 0.000000
		CHANNELS 3 Zrotation Yrotation Xrotation
		JOINT RightUpLeg
		{
			OFFSET -1.305520 -1.794630 0.839290
			CHANNELS 3 Zrotation Yrotation Xrotation
			JOINT RightLeg
			{
				OFFSET -2.542530 -6.985550 0.000000
				CHANNELS 3 Zrotation Yrotation Xrotation
				JOINT RightFoot
				{
					OFFSET -2.568260 -7.056230 0.000000
					CHANNELS 3 Zrotation Yrotation Xrotation
					JOINT RightToeBase
					{
						OFFSET -0.164730 -0.452590 2.363150
						CHANNELS 3 Zrotation Yrotation Xrotation
						End Site
						{
							OFFSET 0.000000 0.000000 0.000000
						}
					}
				}
			}
		}
	}
	JOINT LowerBack
	{
		OFFSET 0.000000 0.000000 0.000000
		CHANNELS 3 Zrotation Yrotation Xrotation
		JOINT Spine
		{
			OFFSET 0.028270 2.035590 -0.193380
			CHANNELS 3 Zrotation Yrotation Xrotation
			JOINT Spine1
			{
				OFFSET 0.056720 2.048850 -0.042750
				CHANNELS 3 Zrotation Yrotation Xrotation
				JOINT Neck
				{
					OFFSET 0.000000 0.000000 0.000000
					CHANNELS 3 Zrotation Yrotation Xrotation
					JOINT Neck1
					{
						OFFSET -0.054170 1.746240 0.172020
						CHANNELS 3 Zrotation Yrotation Xrotation
						JOINT Head
						{
							OFFSET 0.104070 1.761360 -0.123970
							CHANNELS 3 Zrotation Yrotation Xrotation
							End Site
							{
								OFFSET 0.000000 0.000000 0.000000
							}
						}
					}
				}
				JOINT LeftShoulder
				{
					OFFSET 0.000000 0.000000 0.000000
					CHANNELS 3 Zrotation Yrotation Xrotation
					JOINT LeftArm
					{
						OFFSET 3.362410 1.200890 -0.311210
						CHANNELS 3 Zrotation Yrotation Xrotation
						JOINT LeftForeArm
						{
							OFFSET 4.983000 -0.000000 -0.000000
							CHANNELS 3 Zrotation Yrotation Xrotation
							JOINT LeftHand
							{
								OFFSET 3.483560 -0.000000 -0.000000
								CHANNELS 3 Zrotation Yrotation Xrotation
								JOINT LeftFingerBase
								{
									OFFSET 0.000000 0.000000 0.000000
									CHANNELS 3 Zrotation Yrotation Xrotation
									JOINT LeftHandIndex1
									{
										OFFSET 0.715260 -0.000000 -0.000000
										CHANNELS 3 Zrotation Yrotation Xrotation
										End Site
										{
											OFFSET 0.000000 0.000000 0.000000
										}
									}
								}
								JOINT LThumb
								{
									OFFSET 0.000000 0.000000 0.000000
									CHANNELS 3 Zrotation Yrotation Xrotation
									End Site
									{
										OFFSET 0.000000 0.000000 0.000000
									}
								}
							}
						}
					}
				}
				JOINT RightShoulder
				{
					OFFSET 0.000000 0.000000 0.000000
					CHANNELS 3 Zrotation Yrotation Xrotation
					JOINT RightArm
					{
						OFFSET -3.136600 1.374050 -0.404650
						CHANNELS 3 Zrotation Yrotation Xrotation
						JOINT RightForeArm
						{
							OFFSET -5.241900 -0.000000 -0.000000
							CHANNELS 3 Zrotation Yrotation Xrotation
							JOINT RightHand
							{
								OFFSET -3.444170 -0.000000 -0.000000
								CHANNELS 3 Zrotation Yrotation Xrotation
								JOINT RightFingerBase
								{
									OFFSET 0.000000 0.000000 0.000000
									CHANNELS 3 Zrotation Yrotation Xrotation
									JOINT RightHandIndex1
									{
										OFFSET -0.622530 -0.000000 -0.000000
										CHANNELS 3 Zrotation Yrotation Xrotation
										End Site
										{
											OFFSET 0.000000 0.000000 0.000000
										}
									}
								}
								JOINT RThumb
								{
									OFFSET 0.000000 0.000000 0.000000
									CHANNELS 3 Zrotation Yrotation Xrotation
									End Site
									{
										OFFSET 0.000000 0.000000 0.000000
									}
								}
							}
						}
					}
				}
			}
		}
	}
}
MOTION
Frames: 7
Frame Time: 0.008333
6.937482 17.838309 -31.132317 3.031854 31.482262 5.160543 -4.829444 0.928663 0.945999 -18.775789 -31.484425 -7.470551 2.494752 9.723865 29.928109 3.149962 -4.158131 -29.183214 0.456500 -4.334100 -12.018600 0.993622 -1.353227 1.783745 19.677652 9.124384 -6.061248 -2.735795 -9.848879 29.539113 -5.482096 6.121668 -40.449868 -1.439000 7.584100 -21.457700 1.276923 2.731501 -1.521788 2.273706 2.788879 3.412787 1.545976 1.627628 -2.834198 8.940782 15.556940 -9.225898 -0.372080 20.540599 18.119655 -1.273800 10.451200 12.026100 -0.977215 -10.252181 0.230801 -96.532522 1.274184 39.752888 16.561076 -15.483688 -2.913341 -0.667996 -1.683032 -9.982897 15.188865 19.491031 5.919100 -7.125000 0.000000 0.000000 -12.609300 51.323300 -1.990700 4.395133 10.799645 0.905928 86.154777 -3.646241 -14.827911 -15.051562 15.063647 -3.080597 2.680820 -0.818914 5.117312 -41.200182 -7.549113 6.210700 7.125000 0.000000 0.000000 -14.823100 -38.537400 -2.422800 
6.935345 17.838018 -31.132511 3.017852 31.428512 5.146518 -4.839465 0.926216 0.949584 -18.735130 -31.431675 -7.499837 2.494861 9.727516 29.933863 3.147782 -4.153552 -29.174357 0.461400 -4.357100 -12.083500 0.981919 -1.352972 1.779832 19.708443 9.168585 -6.030660 -2.733578 -9.842640 29.523039 -5.481672 6.163899 -40.426487 -1.425000 7.548600 -21.351100 1.459761 2.760120 -1.517638 1.990498 2.824838 3.392750 1.394537 1.645514 -2.828511 9.177839 15.551779 -9.178453 -0.460149 20.501950 18.109011 -1.340100 10.443100 12.044500 -0.941416 -10.240255 0.243118 -96.303741 1.414887 39.992501 16.568603 -15.515927 -2.924422 -0.682674 -1.663728 -10.422387 15.587044 19.325627 6.027100 -7.125000 0.000000 0.000000 -12.123900 51.196900 -1.874200 4.404555 10.780015 0.892052 86.291795 -3.705768 -15.064942 -15.113080 15.148119 -3.097315 2.695230 -0.784926 4.602785 -41.249017 -7.579546 6.261300 7.125000 0.000000 0.000000 -14.878600 -38.597000 -2.409900 
6.934956 17.839378 -31.134939 3.011389 31.398966 5.165442 -4.846498 0.923522 0.951027 -18.696950 -31.413168 -7.562155 2.495583 9.728323 29.936831 3.148499 -4.174563 -29.163837 0.457100 -4.337000 -12.026700 0.974785 -1.352963 1.779957 19.703215 9.161867 -6.076909 -2.730658 -9.836459 29.508283 -5.464612 6.142277 -40.356860 -1.430300 7.562200 -21.392000 1.602006 2.736978 -1.544455 1.817480 2.790936 3.393800 1.278600 1.628038 -2.797541 9.334929 15.595030 -9.096689 -0.598415 20.551702 18.053815 -1.404700 10.463200 12.049000 -0.914632 -10.239016 0.250035 -96.197696 1.505303 40.042073 16.590452 -15.553147 -2.931466 -0.678523 -1.628107 -10.811709 15.780441 18.823871 5.950000 -7.125000 0.000000 0.000000 -11.734000 50.685700 -1.663800 4.401777 10.759684 0.885069 86.320160 -3.788502 -15.040589 -15.253228 15.314798 -3.127464 2.704738 -0.714240 3.909517 -41.066619 -7.883981 6.546000 7.125000 0.000000 0.000000 -14.780200 -39.037800 -2.228400 
6.932722 17.838795 -31.134551 3.041155 31.367771 5.181535 -4.855978 0.921417 0.952466 -18.701755 -31.385861 -7.579971 2.497039 9.732643 29.945793 3.151314 -4.206316 -29.160432 0.452800 -4.316800 -11.969800 0.964808 -1.353413 1.777147 19.688384 9.166775 -6.067332 -2.728008 -9.830673 29.490306 -5.470058 6.192922 -40.356759 -1.427000 7.553700 -21.366500 1.692012 2.762911 -1.548590 1.574144 2.822072 3.378036 1.182394 1.644272 -2.790479 9.517560 15.556961 -9.136921 -0.652309 20.477625 18.094665 -1.451500 10.436900 12.089800 -0.886925 -10.224359 0.256817 -96.027807 1.618747 40.195671 16.588236 -15.563360 -2.933414 -0.682436 -1.601770 -11.081414 15.984425 18.534461 5.937600 -7.125000 0.000000 0.000000 -11.415300 50.397000 -1.535800 4.410096 10.749982 0.876354 86.414874 -3.817801 -15.469238 -15.300502 15.389388 -3.137437 2.711083 -0.686251 3.588419 -41.008118 -7.969697 6.626900 7.125000 0.000000 0.000000 -14.748200 -39.164700 -2.176000 
6.928643 17.839669 -31.133094 2.971021 31.343065 5.122946 -4.854440 0.919083 0.967513 -18.610880 -31.338409 -7.597309 2.498759 9.734240 29.955514 3.150732 -4.212381 -29.148452 0.452800 -4.317100 -11.970600 0.966749 -1.362499 1.791564 19.787775 9.277182 -6.004966 -2.723380 -9.821630 29.467642 -5.455425 6.136191 -40.314443 -1.444400 7.597600 -21.498500 1.618689 2.769606 -1.827940 1.651267 2.805053 3.645691 1.242681 1.632341 -2.525755 9.569008 15.611671 -9.139462 -0.923790 20.561569 17.914418 -1.543700 10.443000 12.076900 -0.877953 -10.283022 0.250975 -96.061668 1.425522 40.200333 16.598994 -15.567389 -2.934091 -0.691199 -1.579183 -11.471967 16.279275 18.140257 5.928600 -7.125000 0.000000 0.000000 -10.968800 50.017400 -1.371200 4.387760 10.761798 0.880567 86.250199 -3.670204 -15.595458 -15.404013 15.513266 -3.157580 2.699926 -0.647543 2.873524 -40.731086 -7.950199 6.553800 7.125000 0.000000 0.000000 -14.485100 -39.126800 -2.149100 
6.925729 17.839961 -31.132511 2.948962 31.312465 5.105983 -4.858625 0.916628 0.974471 -18.563250 -31.302073 -7.626271 2.501061 9.738134 29.967945 3.151719 -4.231340 -29.140142 0.451600 -4.311500 -11.954600 0.962223 -1.366258 1.796254 19.826271 9.320483 -5.982213 -2.719168 -9.813284 29.444898 -5.446649 6.125378 -40.277827 -1.451200 7.614800 -21.550100 1.654565 2.777782 -1.943868 1.552063 2.804030 3.746939 1.205400 1.630567 -2.412625 9.694228 15.632299 -9.131228 -1.089615 20.583114 17.838609 -1.614700 10.441800 12.085800 -0.858021 -10.301027 0.253151 -95.988628 1.409613 40.263615 16.610628 -15.585625 -2.938346 -0.695522 -1.553928 -11.840198 16.522942 17.771732 5.902000 -7.125000 0.000000 0.000000 -10.591800 49.651500 -1.227000 4.382238 10.757452 0.876956 86.233090 -3.646153 -15.766761 -15.481591 15.611369 -3.174060 2.701082 -0.608926 2.336309 -40.591090 -8.028135 6.608500 7.125000 0.000000 0.000000 -14.373400 -39.237400 -2.091600 
6.922523 17.840349 -31.131637 2.926083 31.282089 5.089038 -4.862602 0.914185 0.981201 -18.513581 -31.265666 -7.655657 2.503456 9.742376 29.981496 3.153014 -4.253062 -29.132319 0.450200 -4.304700 -11.935600 0.957863 -1.369864 1.800793 19.866916 9.360839 -5.958116 -2.714089 -9.803611 29.418312 -5.437529 6.108452 -40.242390 -1.458400 7.632700 -21.604000 1.686764 2.785243 -2.053380 1.454620 2.802701 3.844229 1.170135 1.628923 -2.305201 9.816630 15.653583 -9.122191 -1.257454 20.606436 17.761409 -1.685900 10.441000 12.093900 -0.838960 -10.318689 0.255313 -95.921486 1.392045 40.315089 16.622879 -15.603879 -2.942357 -0.699326 -1.527037 -12.225482 16.767832 17.369328 5.861100 -7.125000 0.000000 0.000000 -10.208500 49.247700 -1.079500 4.377448 10.752745 0.873088 86.222147 -3.628559 -15.922106 -15.552918 15.701076 -3.189011 2.701309 -0.573416 1.827226 -40.455354 -8.087585 6.645100 7.125000 0.000000 0.000000 -14.261400 -39.321700 -2.044100 
